<svg xmlns="http://www.w3.org/2000/svg" width="25.24" height="25.24" viewBox="0 0 25.24 25.24">
  <path id="github" d="M12.62,0A12.67,12.67,0,0,0,0,12.62,13.1,13.1,0,0,0,9.662,25.24V21.065A3.039,3.039,0,0,1,6.256,19.55c-.287-.484-.795-1.008-1.325-.97L4.8,17.107a3.041,3.041,0,0,1,2.727,1.687,1.635,1.635,0,0,0,.949.812A1.988,1.988,0,0,0,9.718,19.5a3.466,3.466,0,0,1,.869-1.778h0c-3.287-.49-4.6-2.234-5.117-3.611a5.791,5.791,0,0,1,.9-5.554.2.2,0,0,0,.05-.153A4.841,4.841,0,0,1,6.566,5.17a5.11,5.11,0,0,1,2.8,1.054l.355.213c.148.088.1.038.25.027a10.71,10.71,0,0,1,2.649-.373,10.757,10.757,0,0,1,2.685.382l.115.012c-.01,0,.031-.007.1-.049,2.562-1.552,2.47-1.045,3.157-1.268A4.924,4.924,0,0,1,18.821,8.4c-.075.23,2.221,2.332.949,5.706-.52,1.377-1.83,3.121-5.117,3.611h0a3.245,3.245,0,0,1,.925,2.309V25.24A13.1,13.1,0,0,0,25.24,12.62,12.669,12.669,0,0,0,12.62,0Zm0,0" fill="#ffd87d"/>
</svg>
