<svg xmlns="http://www.w3.org/2000/svg" width="25.241" height="25.24" viewBox="0 0 25.241 25.24">
  <path id="whatsapp" d="M12.62,0A12.67,12.67,0,0,0,0,12.62a12.536,12.536,0,0,0,1.786,6.463L0,25.24l6.157-1.786A12.536,12.536,0,0,0,12.62,25.24,12.62,12.62,0,1,0,12.62,0Zm7.89,17.953-.587.587c-.831.831-2.741.765-3.969.528-4.082-.788-8.841-5.4-9.759-9.4-.454-1.979-.2-3.7.453-4.356l.587-.587a.831.831,0,0,1,1.174,0l2.349,2.349a.831.831,0,0,1,0,1.174l-.587.588a1.664,1.664,0,0,0,0,2.349l3.879,3.828a1.66,1.66,0,0,0,2.349,0l.587-.587a.868.868,0,0,1,1.175,0l2.348,2.348a.83.83,0,0,1,0,1.175Zm0,0" fill="#ffd87d"/>
</svg>
