<svg id="instagram" xmlns="http://www.w3.org/2000/svg" width="25.241" height="25.24" viewBox="0 0 25.241 25.24">
  <path id="Path_11" data-name="Path 11" d="M21.543,0H3.7A3.7,3.7,0,0,0,0,3.7V21.543a3.7,3.7,0,0,0,3.7,3.7H21.543a3.7,3.7,0,0,0,3.7-3.7V3.7A3.7,3.7,0,0,0,21.543,0ZM12.67,19.226a6.655,6.655,0,1,1,6.655-6.655A6.663,6.663,0,0,1,12.67,19.226ZM20.064,7.395a2.218,2.218,0,1,1,2.218-2.218A2.221,2.221,0,0,1,20.064,7.395Zm0,0" fill="#ffd87d"/>
  <path id="Path_12" data-name="Path 12" d="M392.739,90a.739.739,0,1,0,.74.739A.74.74,0,0,0,392.739,90Zm0,0" transform="translate(-372.675 -85.563)" fill="#ffd87d"/>
  <path id="Path_13" data-name="Path 13" d="M157.176,150a5.176,5.176,0,1,0,5.176,5.176A5.183,5.183,0,0,0,157.176,150Zm0,0" transform="translate(-144.507 -142.605)" fill="#ffd87d"/>
</svg>
