<svg xmlns="http://www.w3.org/2000/svg" width="31.578" height="31.597" viewBox="0 0 31.578 31.597">
  <g id="logo" transform="translate(-0.153)">
    <g id="Group_3" data-name="Group 3" transform="translate(1.911)">
      <g id="Group_2" data-name="Group 2" transform="translate(0)">
        <path id="Path_5" data-name="Path 5" d="M57.643,26.865l-12.39-12.39L30.779,0H29.647l-.231.587a10.378,10.378,0,0,0-.753,4.582A6.472,6.472,0,0,0,30.477,9.3l11.3,11.3,1.49-1.49L53.715,30.794a2.778,2.778,0,1,0,3.929-3.929Z" transform="translate(-28.636)" fill="#131313"/>
      </g>
    </g>
    <g id="Group_5" data-name="Group 5" transform="translate(0.153 17.986)">
      <g id="Group_4" data-name="Group 4" transform="translate(0)">
        <path id="Path_6" data-name="Path 6" d="M9.816,291.442l-8.85,8.85a2.778,2.778,0,0,0,3.929,3.929l8.85-8.85Z" transform="translate(-0.153 -291.442)" fill="#131313"/>
      </g>
    </g>
    <g id="Group_7" data-name="Group 7" transform="translate(17.075 0.022)">
      <g id="Group_6" data-name="Group 6">
        <path id="Path_7" data-name="Path 7" d="M287.678,5.6l-5.02,5.02-1.31-1.31,5.02-5.02-1.31-1.31L280.038,8l-1.31-1.31,5.02-5.02-1.31-1.31-6.548,6.548a4.623,4.623,0,0,0-1.347,3,2.668,2.668,0,0,1-.19.836l4.254,4.254a2.665,2.665,0,0,1,.836-.19,4.622,4.622,0,0,0,3-1.347l6.548-6.548Z" transform="translate(-274.354 -0.361)" fill="#131313"/>
      </g>
    </g>
  </g>
</svg>
