<svg xmlns="http://www.w3.org/2000/svg" width="15.666" height="15.675" viewBox="0 0 15.666 15.675">
  <g id="logo-orange" transform="translate(-0.153)">
    <g id="Group_3" data-name="Group 3" transform="translate(1.025)">
      <g id="Group_2" data-name="Group 2" transform="translate(0)">
        <path id="Path_5" data-name="Path 5" d="M43.026,13.328,36.88,7.181,29.7,0h-.561l-.115.291a5.148,5.148,0,0,0-.374,2.273,3.211,3.211,0,0,0,.9,2.051l5.606,5.606.739-.739,5.183,5.8a1.378,1.378,0,0,0,1.949-1.949Z" transform="translate(-28.636)" fill="#ffd87d"/>
      </g>
    </g>
    <g id="Group_5" data-name="Group 5" transform="translate(0.153 8.923)">
      <g id="Group_4" data-name="Group 4" transform="translate(0)">
        <path id="Path_6" data-name="Path 6" d="M4.947,291.442.556,295.833a1.378,1.378,0,0,0,1.949,1.949L6.9,293.391Z" transform="translate(-0.153 -291.442)" fill="#ffd87d"/>
      </g>
    </g>
    <g id="Group_7" data-name="Group 7" transform="translate(8.548 0.011)">
      <g id="Group_6" data-name="Group 6">
        <path id="Path_7" data-name="Path 7" d="M280.964,2.96,278.473,5.45l-.65-.65,2.491-2.491-.65-.65-2.491,2.491-.65-.65,2.491-2.491-.65-.65L275.116,3.61a2.293,2.293,0,0,0-.668,1.486,1.324,1.324,0,0,1-.094.415l2.11,2.11a1.322,1.322,0,0,1,.415-.094,2.293,2.293,0,0,0,1.486-.668l3.249-3.249Z" transform="translate(-274.354 -0.361)" fill="#ffd87d"/>
      </g>
    </g>
  </g>
</svg>
